<?xml version="1.0" encoding="iso-8859-1"?>
<!-- Generator: Adobe Illustrator 19.0.0, SVG Export Plug-In . SVG Version: 6.00 Build 0)  -->
<svg version="1.1" id="Layer_1" xmlns="http://www.w3.org/2000/svg" xmlns:xlink="http://www.w3.org/1999/xlink" x="0px" y="0px"
	 viewBox="0 0 139.938 22.43" style="enable-background:new 0 0 139.938 22.43;" xml:space="preserve">
<g id="XMLID_1_">
	<path id="XMLID_2_" style="fill:#BE1E2D;" d="M15.478,12.382c-0.12,0.361-0.325,1.32-0.614,2.875
		c-0.148,0.782-0.222,1.459-0.222,2.035c0,0.498,0.102,0.888,0.306,1.17s0.542,0.423,1.015,0.423c0.179,0,0.394-0.054,0.645-0.159
		c0.25-0.106,0.537-0.272,0.859-0.5c0.322-0.227,0.682-0.52,1.08-0.878c0.397-0.359,0.839-0.787,1.327-1.285
		c0.021,0.044,0.064,0.146,0.129,0.308c0.057,0.139,0.138,0.35,0.242,0.631c0.104,0.282,0.249,0.668,0.435,1.159
		c-0.537,0.527-1.076,0.992-1.617,1.393c-0.541,0.401-1.067,0.736-1.579,1.007c-0.512,0.271-1.003,0.475-1.472,0.611
		c-0.469,0.138-0.901,0.206-1.294,0.206c-0.45,0-0.867-0.079-1.253-0.237c-0.385-0.159-0.719-0.39-1.001-0.692
		c-0.282-0.304-0.505-0.676-0.669-1.117s-0.246-0.944-0.246-1.511c0-0.213,0.021-0.481,0.064-0.806
		c0.043-0.323,0.105-0.691,0.188-1.104c0.082-0.412,0.186-0.917,0.311-1.517s0.259-1.172,0.401-1.716
		c-0.965,0.106-1.89,0.205-2.775,0.295c-0.886,0.091-1.768,0.178-2.646,0.261c-0.205,0.617-0.406,1.239-0.605,1.866
		c-0.198,0.628-0.389,1.2-0.572,1.715c-0.183,0.517-0.351,0.988-0.505,1.417c-0.154,0.428-0.285,0.776-0.392,1.044
		c-0.494,0.938-0.845,1.491-1.053,1.661c-0.337,0.286-0.638,0.43-0.902,0.43c-0.172,0-0.34-0.026-0.505-0.078
		c-0.165-0.053-0.312-0.127-0.44-0.225s-0.231-0.215-0.306-0.352s-0.113-0.29-0.113-0.459c0-0.112,0.014-0.221,0.043-0.325
		c0.258-1.154,0.598-2.26,1.021-3.316c0.415-1.105,0.773-2.156,1.074-3.151c-0.394,0-0.772-0.032-1.133-0.096
		C2.34,13.3,2.005,13.19,1.697,13.032c-0.308-0.158-0.582-0.375-0.822-0.653c-0.24-0.278-0.439-0.631-0.596-1.059
		c-0.029-0.135-0.052-0.255-0.07-0.36c-0.018-0.105-0.027-0.21-0.027-0.315c0-0.229,0.111-0.344,0.333-0.344
		c0.136,0,0.286,0.063,0.451,0.188c0.165,0.125,0.376,0.328,0.634,0.607c0.336-0.014,0.673-0.025,1.01-0.032
		c0.336-0.007,0.698-0.011,1.085-0.011h1.031c0.258-0.666,0.505-1.307,0.741-1.923C5.761,8.329,5.976,7.72,6.112,7.305
		c0.122-0.379,0.218-0.759,0.29-1.139C6.474,5.787,6.51,5.425,6.51,5.081c0-0.279-0.025-0.537-0.075-0.773S6.304,3.871,6.19,3.706
		C6.076,3.541,5.931,3.413,5.753,3.319C5.576,3.227,5.355,3.18,5.093,3.18c-0.213,0-0.46,0.036-0.741,0.107
		C4.072,3.359,3.761,3.475,3.42,3.636S2.708,4.009,2.307,4.27C1.905,4.532,1.47,4.855,1.001,5.242
		c-0.164,0.136-0.314,0.233-0.453,0.29C0.41,5.59,0.284,5.618,0.17,5.618c-0.057,0-0.1-0.095-0.128-0.285
		C0.014,5.144,0,4.909,0,4.63c0-0.372,0.087-0.727,0.263-1.063C0.438,3.23,0.673,2.92,0.967,2.637
		C1.26,2.354,1.599,2.097,1.982,1.864c0.383-0.232,0.777-0.43,1.182-0.591c0.404-0.161,0.807-0.285,1.208-0.371
		c0.401-0.086,0.77-0.129,1.106-0.129c0.501,0,0.981,0.068,1.439,0.204c0.458,0.136,0.861,0.354,1.208,0.655
		C8.474,1.934,8.75,2.324,8.954,2.804C9.158,3.284,9.26,3.867,9.26,4.555c0,0.322-0.039,0.716-0.115,1.182
		C9.068,6.202,8.964,6.712,8.833,7.267C8.701,7.822,8.546,8.413,8.367,9.04c-0.179,0.627-0.371,1.266-0.575,1.917
		c0.734-0.05,1.561-0.1,2.48-0.15c0.919-0.05,1.842-0.1,2.769-0.15c0.393-1.183,0.803-2.417,1.23-3.701
		c0.427-1.285,0.898-2.543,1.415-3.775c0.172-0.408,0.398-0.734,0.679-0.978c0.281-0.243,0.612-0.365,0.994-0.365
		c0.157,0,0.309,0.021,0.455,0.064s0.275,0.109,0.387,0.199c0.112,0.09,0.199,0.204,0.259,0.344c0.061,0.14,0.091,0.303,0.091,0.489
		c0,0.171-0.011,0.37-0.032,0.596s-0.079,0.47-0.172,0.73c-0.165,0.444-0.34,0.918-0.527,1.423
		c-0.186,0.505-0.375,1.024-0.564,1.558c-0.19,0.533-0.38,1.079-0.57,1.638c-0.19,0.559-0.371,1.114-0.543,1.665
		c0.352-0.06,0.697-0.103,1.035-0.127s0.592-0.043,0.763-0.056c0.079-0.006,0.152-0.011,0.219-0.016
		c0.067-0.005,0.131-0.008,0.19-0.009c0.223,0,0.403,0.022,0.541,0.065c0.138,0.043,0.245,0.105,0.323,0.185
		s0.132,0.174,0.162,0.282c0.029,0.108,0.044,0.231,0.044,0.369c0,0.145-0.034,0.266-0.101,0.363s-0.152,0.175-0.253,0.233
		c-0.101,0.059-0.208,0.1-0.32,0.125c-0.113,0.024-0.218,0.04-0.315,0.046c-0.199,0.021-0.341,0.035-0.427,0.044
		c-0.085,0.008-0.147,0.015-0.187,0.019c-0.039,0.004-0.064,0.006-0.075,0.008c-0.011,0.001-0.037,0.003-0.08,0.008
		c-0.043,0.004-0.118,0.012-0.224,0.023c-0.107,0.011-0.27,0.028-0.491,0.05c-0.254,0.047-0.503,0.088-0.747,0.123
		C15.959,12.312,15.718,12.347,15.478,12.382z"/>
	<path id="XMLID_4_" style="fill:#BE1E2D;" d="M27.199,18.079c-0.258,0.236-0.579,0.488-0.961,0.757
		c-0.383,0.269-0.797,0.516-1.241,0.741c-0.444,0.226-0.897,0.414-1.359,0.564s-0.901,0.226-1.316,0.226
		c-0.373,0-0.686-0.052-0.94-0.156c-0.254-0.104-0.46-0.248-0.618-0.435c-0.158-0.187-0.271-0.414-0.338-0.683
		c-0.068-0.269-0.102-0.563-0.102-0.886c0-0.451,0.05-0.978,0.15-1.579c0.207-1.244,0.339-1.943,0.398-2.097
		c0.098-0.306,0.293-0.983,0.586-2.033c0.271-0.855,0.439-1.412,0.503-1.67c0.035-0.181,0.134-0.344,0.295-0.489
		c0.148-0.13,0.315-0.237,0.501-0.321c0.187-0.083,0.38-0.145,0.581-0.185c0.2-0.04,0.381-0.06,0.543-0.06
		c0.295,0,0.496,0.056,0.602,0.167c0.105,0.111,0.158,0.26,0.158,0.446c0,0.158-0.037,0.38-0.11,0.668
		c-0.073,0.288-0.157,0.616-0.251,0.983c-0.094,0.368-0.233,0.841-0.418,1.419c-0.185,0.579-0.311,1.072-0.378,1.479
		c-0.067,0.408-0.153,0.814-0.256,1.216c-0.103,0.402-0.154,0.769-0.154,1.098c0,0.322,0.036,0.578,0.107,0.768
		c0.071,0.19,0.218,0.285,0.44,0.285c0.258,0,0.544-0.09,0.859-0.269c0.315-0.179,0.634-0.396,0.956-0.65
		c0.322-0.254,0.637-0.517,0.945-0.789c0.308-0.272,0.58-0.505,0.816-0.698V18.079z M22.397,6.806c0-0.167,0.036-0.354,0.107-0.564
		c0.071-0.209,0.188-0.407,0.349-0.591c0.161-0.185,0.376-0.34,0.645-0.466s0.603-0.19,1.004-0.19c0.25,0,0.487,0.029,0.709,0.087
		c0.222,0.058,0.415,0.146,0.58,0.266c0.165,0.119,0.295,0.276,0.392,0.472s0.145,0.426,0.145,0.694c0,0.246-0.04,0.484-0.118,0.716
		c-0.079,0.231-0.204,0.437-0.376,0.618c-0.172,0.181-0.389,0.327-0.65,0.439c-0.262,0.112-0.575,0.168-0.94,0.168
		c-0.63,0-1.096-0.15-1.396-0.45C22.548,7.704,22.397,7.305,22.397,6.806z"/>
	<path id="XMLID_7_" style="fill:#BE1E2D;" d="M28.22,21.141c0.021-0.094,0.05-0.214,0.086-0.36
		c0.036-0.146,0.077-0.306,0.124-0.478c0.046-0.172,0.097-0.353,0.15-0.543c0.054-0.189,0.105-0.377,0.156-0.563
		c0.122-0.43,0.25-0.888,0.387-1.375c0.043-0.15,0.113-0.283,0.209-0.397s0.211-0.21,0.344-0.285
		c0.132-0.075,0.277-0.13,0.435-0.166c0.157-0.036,0.318-0.054,0.483-0.054c0.2,0,0.401,0.026,0.602,0.08
		c0.2,0.054,0.381,0.135,0.542,0.242s0.292,0.238,0.392,0.392c0.1,0.154,0.15,0.332,0.15,0.532c0,0.144-0.025,0.283-0.075,0.419
		c-0.05,0.136-0.118,0.283-0.204,0.44c-0.136,0.215-0.285,0.445-0.446,0.692s-0.322,0.494-0.483,0.741s-0.319,0.483-0.473,0.709
		c-0.154,0.226-0.289,0.421-0.403,0.586c-0.172,0.236-0.362,0.406-0.569,0.51c-0.208,0.104-0.408,0.156-0.602,0.156
		c-0.236,0-0.44-0.077-0.612-0.231s-0.258-0.37-0.258-0.649C28.155,21.423,28.177,21.291,28.22,21.141z"/>
	<path id="XMLID_9_" style="fill:#BE1E2D;" d="M40.794,5.317l-0.043,0.021c-0.021,0-0.042-0.127-0.059-0.382
		c-0.018-0.255-0.027-0.599-0.027-1.029c0-0.087,0.039-0.201,0.118-0.343c0.079-0.142,0.211-0.292,0.397-0.452
		c0.186-0.16,0.431-0.319,0.736-0.479c0.304-0.16,0.688-0.305,1.149-0.435c0.462-0.131,1.005-0.236,1.63-0.316
		c0.625-0.08,1.349-0.12,2.171-0.12c0.709,0,1.262,0.035,1.66,0.104s0.696,0.16,0.897,0.272c0.2,0.112,0.324,0.243,0.371,0.392
		c0.046,0.149,0.07,0.299,0.07,0.452c0,0.16-0.018,0.316-0.054,0.468c-0.036,0.152-0.129,0.289-0.279,0.408
		s-0.376,0.216-0.677,0.288c-0.301,0.073-0.713,0.109-1.235,0.109c-0.236,0-0.473-0.011-0.709-0.032
		c-0.201,0.759-0.374,1.454-0.52,2.083s-0.279,1.21-0.402,1.74s-0.238,1.028-0.346,1.495c-0.107,0.466-0.216,0.937-0.326,1.41
		s-0.223,0.97-0.342,1.49c-0.119,0.52-0.254,1.08-0.407,1.68s-0.323,1.273-0.512,2.019c-0.189,0.745-0.405,1.597-0.647,2.553
		c0.043,0,0.142,0.007,0.295,0.021c0.154,0.015,0.332,0.039,0.532,0.074c0.201,0.035,0.414,0.081,0.639,0.138
		s0.432,0.127,0.618,0.212c0.187,0.084,0.34,0.183,0.462,0.296c0.122,0.112,0.183,0.243,0.183,0.391
		c0,0.296-0.258,0.585-0.773,0.867c-0.15,0-0.392,0-0.725,0s-0.725,0-1.175,0c-0.45,0-0.936,0-1.457,0s-1.042,0.001-1.564,0.005
		c-0.522,0.004-1.028,0.004-1.519,0c-0.491-0.004-0.922-0.007-1.294-0.011c-0.372-0.003-0.671-0.009-0.897-0.016
		s-0.338-0.018-0.338-0.031c0-0.021,0.034-0.055,0.102-0.101c0.068-0.046,0.145-0.109,0.231-0.19s0.168-0.182,0.247-0.302
		c0.079-0.12,0.129-0.268,0.15-0.444c0.015-0.12,0.136-0.234,0.365-0.344s0.505-0.208,0.827-0.296s0.664-0.16,1.026-0.217
		c0.361-0.057,0.682-0.096,0.961-0.116c0.24-0.938,0.48-1.874,0.719-2.809c0.24-0.935,0.462-1.876,0.667-2.825
		c0.206-0.949,0.42-1.835,0.645-2.657c0.225-0.822,0.441-1.595,0.65-2.318c0.208-0.723,0.392-1.391,0.548-2.002
		c0.157-0.611,0.317-1.138,0.481-1.58c-0.265,0.029-0.498,0.058-0.698,0.086c-0.201,0.029-0.38,0.061-0.537,0.097
		c-0.158,0.036-0.306,0.075-0.446,0.118S42.051,4.85,41.9,4.904s-0.313,0.115-0.489,0.183C41.236,5.155,41.03,5.231,40.794,5.317z"
		/>
	<path id="XMLID_11_" style="fill:#BE1E2D;" d="M48.447,6.585c0-0.129,0.005-0.295,0.016-0.5s0.023-0.43,0.038-0.677
		c0.014-0.247,0.032-0.508,0.054-0.784c0.021-0.275,0.043-0.546,0.064-0.811c0.05-0.623,0.107-1.292,0.172-2.009
		c0-0.215,0.054-0.406,0.162-0.575c0.107-0.168,0.248-0.312,0.42-0.43c0.172-0.118,0.366-0.209,0.582-0.274
		C50.169,0.462,50.385,0.43,50.6,0.43c0.188,0,0.369,0.023,0.542,0.07c0.173,0.047,0.328,0.117,0.463,0.209
		c0.135,0.093,0.243,0.215,0.322,0.365s0.119,0.326,0.119,0.526c0,0.086-0.007,0.174-0.022,0.263
		c-0.015,0.09-0.038,0.185-0.068,0.285c-0.105,0.344-0.22,0.722-0.345,1.133c-0.124,0.412-0.252,0.822-0.384,1.23
		s-0.26,0.797-0.384,1.166c-0.124,0.369-0.235,0.682-0.333,0.94c-0.122,0.344-0.295,0.6-0.521,0.768
		c-0.226,0.168-0.453,0.252-0.682,0.252c-0.229,0-0.43-0.087-0.602-0.263C48.533,7.199,48.447,6.936,48.447,6.585z"/>
	<path id="XMLID_13_" style="fill:#BE1E2D;" d="M59.447,18.417c0-0.094,0.007-0.227,0.021-0.399c0.014-0.172,0.036-0.37,0.064-0.593
		c0.028-0.223,0.061-0.459,0.097-0.707c0.036-0.248,0.071-0.494,0.107-0.739c0.079-0.575,0.175-1.194,0.29-1.855h-0.161
		c-0.086,0.108-0.185,0.271-0.295,0.486c-0.111,0.216-0.267,0.533-0.467,0.951c-0.201,0.418-0.457,0.96-0.768,1.626
		c-0.312,0.667-0.714,1.483-1.208,2.449c-0.144,0.285-0.31,0.479-0.5,0.579c-0.19,0.101-0.399,0.151-0.628,0.151
		c-0.294,0-0.53-0.061-0.709-0.183c-0.179-0.122-0.317-0.285-0.414-0.49s-0.161-0.438-0.193-0.698s-0.048-0.53-0.048-0.809
		c0-0.295,0.018-0.645,0.054-1.049c0.036-0.403,0.082-0.829,0.14-1.276c0.057-0.447,0.141-0.957,0.252-1.53
		c0.111-0.573,0.208-1.073,0.29-1.5c0.082-0.426,0.167-0.817,0.252-1.171c0.086-0.354,0.165-0.644,0.236-0.868
		c0.071-0.231,0.14-0.416,0.204-0.553c0.064-0.138,0.138-0.244,0.22-0.32c0.082-0.076,0.181-0.126,0.295-0.152
		c0.114-0.025,0.261-0.038,0.44-0.038c0.272,0,0.485,0.009,0.639,0.027c0.154,0.018,0.269,0.062,0.344,0.13
		c0.075,0.069,0.12,0.168,0.134,0.298c0.014,0.13,0.021,0.307,0.021,0.531c0,0.123-0.005,0.264-0.016,0.423
		s-0.027,0.329-0.048,0.509c-0.015,0.181-0.036,0.365-0.064,0.553c-0.05,0.361-0.079,0.549-0.086,0.563
		c-0.101,0.492-0.204,1.041-0.312,1.648l0.118,0.13c0.014-0.021,0.109-0.213,0.285-0.575c0.175-0.361,0.365-0.719,0.569-1.073
		s0.424-0.725,0.661-1.111s0.462-0.728,0.677-1.024c0.208-0.296,0.428-0.542,0.661-0.737c0.232-0.195,0.51-0.293,0.833-0.293
		c0.301,0,0.559,0.089,0.773,0.266c0.215,0.177,0.322,0.428,0.322,0.753c0,0.282-0.018,0.549-0.054,0.802
		c-0.043,0.326-0.086,0.571-0.129,0.737c-0.05,0.188-0.107,0.419-0.172,0.694c-0.05,0.238-0.14,0.582-0.269,1.03
		c-0.021,0.072-0.043,0.177-0.064,0.314c-0.007,0.043-0.011,0.072-0.011,0.087l0.118,0.13c0.014-0.021,0.114-0.211,0.301-0.569
		c0.186-0.357,0.388-0.714,0.607-1.068c0.218-0.354,0.451-0.726,0.698-1.117c0.247-0.39,0.478-0.733,0.693-1.03
		c0.208-0.289,0.415-0.533,0.623-0.732c0.208-0.199,0.462-0.298,0.763-0.298c0.336,0,0.621,0.089,0.854,0.266
		c0.232,0.177,0.349,0.428,0.349,0.753c0,0.499-0.025,0.972-0.075,1.42c-0.05,0.448-0.125,0.943-0.226,1.485
		c-0.101,0.542-0.176,1.036-0.226,1.48c-0.05,0.445-0.075,0.917-0.075,1.415c0,0.391,0.05,0.709,0.15,0.954
		c0.1,0.246,0.222,0.369,0.365,0.369c0.15,0,0.308-0.032,0.473-0.098c0.165-0.065,0.333-0.148,0.505-0.25
		c0.172-0.101,0.34-0.218,0.505-0.352c0.165-0.134,0.322-0.273,0.473-0.418c0.351-0.332,0.698-0.708,1.042-1.127l0.183,2.546
		c-0.315,0.244-0.628,0.496-0.94,0.757s-0.641,0.497-0.988,0.709c-0.348,0.212-0.729,0.386-1.144,0.521
		c-0.416,0.135-0.885,0.203-1.407,0.203c-0.258,0-0.475-0.083-0.65-0.247c-0.176-0.165-0.317-0.395-0.424-0.689
		s-0.185-0.643-0.231-1.042c-0.047-0.4-0.07-0.835-0.07-1.306c0-0.455,0.016-0.938,0.048-1.447c0.032-0.51,0.077-1.025,0.134-1.545
		h-0.161l-2.181,5.519c-0.187,0.299-0.394,0.5-0.623,0.603c-0.229,0.104-0.494,0.155-0.795,0.155c-0.229,0-0.412-0.061-0.548-0.183
		c-0.136-0.122-0.242-0.278-0.317-0.469c-0.075-0.191-0.125-0.402-0.15-0.632C59.459,18.855,59.447,18.633,59.447,18.417z"/>
	<path id="XMLID_15_" style="fill:#BE1E2D;" d="M92.318,16.889c-0.351,0.156-0.691,0.362-1.021,0.617
		c-0.329,0.256-0.662,0.536-0.999,0.841c-0.337,0.304-0.686,0.625-1.047,0.962c-0.362,0.338-0.752,0.651-1.171,0.942
		c-0.419,0.29-0.876,0.567-1.37,0.832s-1.04,0.496-1.638,0.695c-0.599,0.199-1.257,0.357-1.977,0.475
		c-0.72,0.118-1.517,0.177-2.391,0.177c-0.967,0-1.839-0.192-2.615-0.578c-0.777-0.385-1.441-0.904-1.993-1.558
		s-0.976-1.413-1.272-2.278c-0.298-0.865-0.446-1.775-0.446-2.729c0-0.664,0.071-1.375,0.215-2.136s0.35-1.536,0.618-2.326
		s0.596-1.578,0.982-2.364c0.387-0.786,0.825-1.539,1.316-2.26c0.49-0.721,1.029-1.39,1.616-2.007
		c0.587-0.616,1.214-1.154,1.88-1.611c0.666-0.458,1.368-0.817,2.105-1.076c0.737-0.26,1.504-0.39,2.299-0.39
		c0.516,0,1.038,0.091,1.568,0.274s1.006,0.464,1.429,0.843c0.423,0.38,0.769,0.859,1.037,1.439s0.402,1.264,0.402,2.052
		c0,0.53-0.084,1.065-0.252,1.606c-0.169,0.541-0.399,1.06-0.693,1.558c-0.294,0.498-0.639,0.965-1.036,1.402
		c-0.397,0.437-0.826,0.815-1.284,1.133c-0.458,0.319-0.935,0.571-1.429,0.757c-0.494,0.187-0.988,0.279-1.482,0.279
		c-0.651,0-1.139-0.087-1.461-0.263c-0.322-0.175-0.483-0.428-0.483-0.757c0-0.057-0.002-0.125-0.005-0.204
		c-0.004-0.079-0.006-0.161-0.006-0.247c0-0.129,0.007-0.263,0.021-0.403s0.043-0.267,0.086-0.381
		c0.043-0.114,0.105-0.208,0.188-0.279c0.082-0.071,0.194-0.107,0.338-0.107c0.086,0,0.161,0.013,0.226,0.038
		c0.064,0.025,0.136,0.052,0.215,0.081c0.079,0.029,0.174,0.056,0.285,0.081c0.11,0.025,0.252,0.038,0.424,0.038
		c0.458,0,0.922-0.1,1.392-0.301c0.469-0.2,0.892-0.483,1.268-0.849s0.684-0.8,0.924-1.305c0.239-0.505,0.359-1.062,0.359-1.67
		c0-0.322-0.043-0.628-0.129-0.918s-0.226-0.544-0.419-0.763C86.7,4.03,86.451,3.855,86.147,3.722
		c-0.305-0.132-0.676-0.199-1.112-0.199c-0.516,0-1.019,0.114-1.509,0.341c-0.491,0.228-0.962,0.536-1.413,0.926
		s-0.879,0.853-1.283,1.387c-0.405,0.535-0.779,1.107-1.123,1.717s-0.653,1.246-0.929,1.907c-0.276,0.661-0.511,1.32-0.704,1.977
		s-0.342,1.295-0.445,1.912c-0.104,0.618-0.156,1.187-0.156,1.707c0,0.764,0.092,1.43,0.274,1.998
		c0.183,0.566,0.441,1.04,0.778,1.418s0.748,0.66,1.235,0.846s1.035,0.278,1.644,0.278c0.759,0,1.467-0.099,2.122-0.295
		s1.279-0.454,1.874-0.773c0.595-0.318,1.169-0.679,1.725-1.079c0.555-0.4,1.109-0.803,1.665-1.207
		c0.555-0.404,1.12-0.79,1.697-1.157c0.576-0.367,1.187-0.677,1.831-0.929V16.889z"/>
	<path id="XMLID_17_" style="fill:#BE1E2D;" d="M97.528,12.085c0.208,0.416,0.363,0.854,0.468,1.316
		c0.104,0.462,0.155,0.983,0.155,1.563c0,0.423-0.047,0.849-0.14,1.278c-0.093,0.43-0.228,0.845-0.402,1.246
		c-0.176,0.401-0.391,0.777-0.645,1.128c-0.255,0.351-0.545,0.655-0.87,0.913c-0.326,0.258-0.683,0.462-1.069,0.612
		s-0.799,0.226-1.235,0.226c-0.63,0-1.169-0.138-1.616-0.414c-0.448-0.275-0.815-0.635-1.102-1.079s-0.496-0.945-0.628-1.504
		c-0.133-0.559-0.199-1.124-0.199-1.697c0-0.945,0.118-1.76,0.354-2.444c0.236-0.684,0.575-1.278,1.016-1.783
		s0.979-0.902,1.616-1.192s1.354-0.435,2.148-0.435c0.681,0,1.317,0.106,1.912,0.317c0.595,0.211,1.151,0.494,1.671,0.849
		c0.519,0.354,1.002,0.8,1.45,1.337c0.447,0.537,0.864,1.049,1.251,1.536l-0.204,1.515c-0.193-0.258-0.455-0.537-0.784-0.838
		s-0.679-0.634-1.047-0.999c-0.369-0.365-0.732-0.675-1.091-0.929c-0.358-0.254-0.666-0.467-0.924-0.639L97.528,12.085z
		 M94.209,18.305c0.243,0,0.479-0.124,0.709-0.371s0.43-0.559,0.602-0.935s0.31-0.83,0.414-1.364
		c0.104-0.533,0.155-1.008,0.155-1.423c0-0.329-0.025-0.635-0.075-0.918c-0.05-0.283-0.125-0.528-0.226-0.736
		c-0.101-0.208-0.229-0.372-0.387-0.494c-0.157-0.122-0.348-0.183-0.569-0.183c-0.294,0-0.573,0.125-0.838,0.376
		c-0.265,0.251-0.498,0.571-0.698,0.961c-0.2,0.391-0.358,0.822-0.473,1.294s-0.172,1.006-0.172,1.601
		c0,0.301,0.028,0.584,0.086,0.849s0.146,0.496,0.269,0.692c0.122,0.197,0.283,0.354,0.483,0.473S93.93,18.305,94.209,18.305z"/>
	<path id="XMLID_20_" style="fill:#BE1E2D;" d="M102.578,20.367c-0.386,0-0.744-0.168-1.076-0.502
		c-0.331-0.335-0.62-0.784-0.866-1.349c-0.246-0.563-0.439-1.218-0.578-1.962c-0.14-0.743-0.209-1.523-0.209-2.341
		c0-0.703,0.104-1.641,0.311-2.814c0.206-1.173,0.31-1.76,0.31-1.76c0,0,0.156-0.585,0.469-1.758
		c0.313-1.172,0.627-2.112,0.941-2.82s0.656-1.37,1.025-1.984c0.369-0.615,0.756-1.151,1.161-1.608
		c0.404-0.457,0.828-0.816,1.27-1.077C105.775,0.13,106.225,0,106.68,0c0.332,0,0.605,0.063,0.821,0.19s0.386,0.293,0.51,0.501
		c0.123,0.208,0.21,0.443,0.26,0.706s0.075,0.531,0.075,0.803c0,0.677-0.08,1.367-0.24,2.069c-0.16,0.702-0.376,1.408-0.647,2.117
		c-0.271,0.709-0.587,1.42-0.943,2.134c-0.358,0.713-0.73,1.42-1.117,2.123c-0.388,0.702-0.776,1.394-1.167,2.074
		c-0.392,0.681-0.752,1.346-1.082,1.996c-0.036,0.072-0.074,0.166-0.113,0.281c-0.04,0.116-0.077,0.24-0.113,0.374
		s-0.072,0.276-0.107,0.428c-0.036,0.152-0.065,0.3-0.087,0.444v0.151c0,0.188,0.02,0.37,0.06,0.547
		c0.039,0.177,0.088,0.336,0.146,0.477c0.058,0.142,0.118,0.253,0.183,0.336c0.065,0.083,0.126,0.125,0.184,0.125
		c0.14,0,0.299-0.029,0.479-0.087s0.37-0.136,0.572-0.232c0.201-0.098,0.408-0.21,0.621-0.336c0.213-0.127,0.418-0.255,0.616-0.385
		c0.462-0.304,0.945-0.653,1.452-1.051l0.948,2.264c-0.656,0.437-1.306,0.824-1.947,1.165c-0.28,0.143-0.569,0.284-0.868,0.424
		s-0.6,0.264-0.901,0.373c-0.303,0.108-0.598,0.195-0.885,0.26C103.098,20.335,102.829,20.367,102.578,20.367z M102.588,11.852
		c0.323-0.578,0.666-1.228,1.029-1.95s0.706-1.466,1.029-2.231s0.604-1.529,0.841-2.292c0.236-0.762,0.388-1.471,0.452-2.128
		c0-0.209-0.005-0.388-0.015-0.536c-0.011-0.148-0.043-0.222-0.097-0.222c-0.197,0-0.409,0.136-0.637,0.408s-0.455,0.64-0.682,1.104
		c-0.228,0.464-0.499,1.219-0.814,2.265c-0.316,1.046-0.474,1.569-0.474,1.57c0,0-0.097,0.485-0.289,1.456
		C102.739,10.266,102.625,11.118,102.588,11.852z"/>
	<path id="XMLID_23_" style="fill:#BE1E2D;" d="M108.357,20.367c-0.386,0-0.744-0.168-1.076-0.502
		c-0.331-0.335-0.62-0.784-0.866-1.349c-0.246-0.563-0.439-1.218-0.578-1.962c-0.14-0.743-0.209-1.523-0.209-2.341
		c0-0.703,0.104-1.641,0.311-2.814c0.206-1.173,0.31-1.76,0.31-1.76c0,0,0.156-0.585,0.469-1.758
		c0.313-1.172,0.627-2.112,0.941-2.82s0.656-1.37,1.025-1.984c0.369-0.615,0.756-1.151,1.161-1.608
		c0.404-0.457,0.828-0.816,1.27-1.077C111.555,0.13,112.004,0,112.459,0c0.332,0,0.605,0.063,0.821,0.19s0.386,0.293,0.51,0.501
		c0.123,0.208,0.21,0.443,0.26,0.706s0.075,0.531,0.075,0.803c0,0.677-0.08,1.367-0.24,2.069c-0.16,0.702-0.376,1.408-0.647,2.117
		c-0.271,0.709-0.587,1.42-0.943,2.134c-0.358,0.713-0.73,1.42-1.117,2.123c-0.388,0.702-0.776,1.394-1.167,2.074
		c-0.392,0.681-0.752,1.346-1.082,1.996c-0.036,0.072-0.074,0.166-0.113,0.281c-0.04,0.116-0.077,0.24-0.113,0.374
		s-0.072,0.276-0.107,0.428c-0.036,0.152-0.065,0.3-0.087,0.444v0.151c0,0.188,0.02,0.37,0.06,0.547
		c0.039,0.177,0.088,0.336,0.146,0.477c0.058,0.142,0.118,0.253,0.183,0.336c0.065,0.083,0.126,0.125,0.184,0.125
		c0.14,0,0.299-0.029,0.479-0.087s0.37-0.136,0.572-0.232c0.201-0.098,0.408-0.21,0.621-0.336c0.213-0.127,0.418-0.255,0.616-0.385
		c0.462-0.304,0.945-0.653,1.452-1.051l0.948,2.264c-0.656,0.437-1.306,0.824-1.947,1.165c-0.28,0.143-0.569,0.284-0.868,0.424
		s-0.6,0.264-0.901,0.373c-0.303,0.108-0.598,0.195-0.885,0.26C108.877,20.335,108.608,20.367,108.357,20.367z M108.367,11.852
		c0.323-0.578,0.666-1.228,1.029-1.95s0.706-1.466,1.029-2.231s0.604-1.529,0.841-2.292c0.236-0.762,0.388-1.471,0.452-2.128
		c0-0.209-0.005-0.388-0.015-0.536c-0.011-0.148-0.043-0.222-0.097-0.222c-0.197,0-0.409,0.136-0.637,0.408s-0.455,0.64-0.682,1.104
		c-0.228,0.464-0.499,1.219-0.814,2.265c-0.316,1.046-0.474,1.569-0.474,1.57c0,0-0.097,0.485-0.289,1.456
		C108.519,10.266,108.404,11.118,108.367,11.852z"/>
	<path id="XMLID_26_" style="fill:#BE1E2D;" d="M115.355,20.367c-0.669,0-1.254-0.124-1.756-0.372c-0.501-0.248-0.919-0.581-1.254-1
		c-0.334-0.419-0.585-0.904-0.752-1.454c-0.167-0.551-0.251-1.129-0.251-1.733c0-0.396,0.075-0.867,0.225-1.415
		s0.305-1.034,0.465-1.458c0.16-0.424,0.361-0.829,0.604-1.214s0.525-0.725,0.85-1.018s0.688-0.526,1.09-0.7s0.85-0.26,1.341-0.26
		c0.401,0,0.774,0.064,1.118,0.193c0.345,0.128,0.644,0.309,0.898,0.542c0.254,0.232,0.453,0.513,0.597,0.842
		s0.215,0.697,0.215,1.105c0,0.434-0.146,0.921-0.436,1.46c-0.291,0.54-0.63,1.001-1.018,1.387s-0.849,0.728-1.383,1.029
		c-0.535,0.302-1.114,0.536-1.739,0.704c0.108,0.189,0.214,0.347,0.318,0.473s0.21,0.225,0.318,0.294
		c0.107,0.07,0.221,0.119,0.339,0.147c0.119,0.027,0.247,0.042,0.383,0.042c0.43,0,0.883-0.084,1.359-0.252s0.939-0.379,1.391-0.631
		s0.878-0.526,1.278-0.824c0.401-0.297,0.741-0.579,1.021-0.845l1.386,1.407c-0.63,0.672-1.3,1.266-2.009,1.781
		c-0.308,0.222-0.639,0.439-0.993,0.653s-0.727,0.403-1.117,0.569s-0.795,0.299-1.214,0.398S115.785,20.367,115.355,20.367z
		 M113.921,15.251c0.259,0,0.541-0.065,0.847-0.194s0.589-0.296,0.852-0.499s0.52-0.476,0.771-0.819
		c0.251-0.343,0.377-0.626,0.377-0.851c0-0.315-0.06-0.574-0.178-0.777s-0.264-0.305-0.437-0.305c-0.31,0-0.573,0.056-0.793,0.168
		c-0.219,0.112-0.402,0.257-0.55,0.436s-0.266,0.381-0.355,0.609c-0.09,0.228-0.194,0.509-0.312,0.845
		c-0.119,0.336-0.186,0.613-0.2,0.83C113.928,14.911,113.921,15.097,113.921,15.251z"/>
	<path id="XMLID_29_" style="fill:#BE1E2D;" d="M123.455,20.367c-0.669,0-1.254-0.124-1.756-0.372c-0.501-0.248-0.919-0.581-1.254-1
		c-0.334-0.419-0.585-0.904-0.752-1.454c-0.167-0.551-0.251-1.129-0.251-1.733c0-0.396,0.075-0.867,0.225-1.415
		s0.305-1.034,0.465-1.458c0.16-0.424,0.361-0.829,0.604-1.214s0.525-0.725,0.85-1.018s0.688-0.526,1.09-0.7s0.85-0.26,1.341-0.26
		c0.401,0,0.774,0.064,1.118,0.193c0.345,0.128,0.644,0.309,0.898,0.542c0.254,0.232,0.453,0.513,0.597,0.842
		s0.215,0.697,0.215,1.105c0,0.434-0.146,0.921-0.436,1.46c-0.291,0.54-0.63,1.001-1.018,1.387s-0.849,0.728-1.383,1.029
		c-0.535,0.302-1.114,0.536-1.739,0.704c0.108,0.189,0.214,0.347,0.318,0.473s0.21,0.225,0.318,0.294
		c0.107,0.07,0.221,0.119,0.339,0.147c0.119,0.027,0.247,0.042,0.383,0.042c0.43,0,0.883-0.084,1.359-0.252s0.939-0.379,1.391-0.631
		s0.878-0.526,1.278-0.824c0.401-0.297,0.741-0.579,1.021-0.845l1.386,1.407c-0.63,0.672-1.3,1.266-2.009,1.781
		c-0.308,0.222-0.639,0.439-0.993,0.653s-0.727,0.403-1.117,0.569s-0.795,0.299-1.214,0.398S123.885,20.367,123.455,20.367z
		 M122.021,15.251c0.259,0,0.541-0.065,0.847-0.194s0.589-0.296,0.852-0.499s0.52-0.476,0.771-0.819
		c0.251-0.343,0.377-0.626,0.377-0.851c0-0.315-0.06-0.574-0.178-0.777s-0.264-0.305-0.437-0.305c-0.31,0-0.573,0.056-0.793,0.168
		c-0.219,0.112-0.402,0.257-0.55,0.436s-0.266,0.381-0.355,0.609c-0.09,0.228-0.194,0.509-0.312,0.845
		c-0.119,0.336-0.186,0.613-0.2,0.83C122.027,14.911,122.021,15.097,122.021,15.251z"/>
	<path id="XMLID_32_" style="fill:#BE1E2D;" d="M127.95,18.122c0-0.473,0.028-1.019,0.086-1.639
		c0.058-0.619,0.129-1.299,0.215-2.041s0.183-1.409,0.29-2.003c0.107-0.594,0.211-1.103,0.312-1.525
		c0.079-0.329,0.231-0.605,0.457-0.827c0.226-0.222,0.531-0.333,0.918-0.333s0.655,0.118,0.806,0.354s0.226,0.552,0.226,0.945
		c0,0.107-0.011,0.252-0.032,0.435s-0.048,0.383-0.08,0.602c-0.032,0.219-0.066,0.444-0.103,0.677
		c-0.036,0.233-0.069,0.498-0.102,0.795c-0.032,0.297-0.06,0.52-0.081,0.666c-0.021,0.147-0.032,0.246-0.032,0.295h0.215
		c0.043-0.079,0.111-0.206,0.204-0.381c0.093-0.175,0.2-0.428,0.322-0.757c0.122-0.329,0.253-0.621,0.393-0.875
		c0.14-0.254,0.27-0.498,0.392-0.73c0.122-0.232,0.232-0.438,0.333-0.618c0.101-0.179,0.176-0.312,0.226-0.397
		c0.229-0.387,0.49-0.651,0.784-0.795c0.294-0.143,0.619-0.215,0.978-0.215s0.643,0.15,0.854,0.451
		c0.211,0.301,0.316,0.716,0.316,1.246c0,0.079-0.016,0.211-0.048,0.397c-0.032,0.187-0.074,0.408-0.124,0.666
		s-0.105,0.591-0.166,0.999c-0.062,0.408-0.117,0.773-0.167,1.096s-0.091,0.641-0.123,0.956c-0.032,0.315-0.049,0.605-0.049,0.87
		c0,0.444,0.056,0.81,0.167,1.096c0.11,0.286,0.284,0.43,0.521,0.43c0.086,0,0.208-0.032,0.365-0.097
		c0.236-0.086,0.387-0.161,0.451-0.226c0.315-0.243,0.479-0.361,0.494-0.354c0.021,0.007,0.262-0.136,0.72-0.43
		c0.573-0.365,1.257-0.812,2.052-1.343l-0.011,2.406l-0.537,0.408c-0.043,0.036-0.38,0.222-1.01,0.559
		c-0.909,0.487-1.479,0.78-1.708,0.881c-0.559,0.251-0.906,0.394-1.042,0.43c-0.358,0.114-0.734,0.172-1.128,0.172
		s-0.725-0.285-0.993-0.854s-0.403-1.401-0.403-2.497c0-0.43,0.028-0.893,0.086-1.391c0.058-0.498,0.129-1.033,0.215-1.606h-0.172
		l-2.814,5.586c-0.15,0.301-0.312,0.501-0.483,0.602c-0.179,0.107-0.387,0.161-0.623,0.161c-0.294,0-0.53-0.062-0.709-0.188
		c-0.179-0.125-0.316-0.293-0.413-0.505c-0.097-0.211-0.161-0.451-0.193-0.72S127.95,18.408,127.95,18.122z"/>
</g>
</svg>
