<?xml version="1.0" encoding="iso-8859-1"?>
<!-- Generator: Adobe Illustrator 19.0.0, SVG Export Plug-In . SVG Version: 6.00 Build 0)  -->
<svg version="1.1" id="Layer_1" xmlns="http://www.w3.org/2000/svg" xmlns:xlink="http://www.w3.org/1999/xlink" x="0px" y="0px"
   viewBox="0 0 200 124.914" style="enable-background:new 0 0 200 124.914;" xml:space="preserve">
<g>
  <path d="M0,111.392c0-3,0-6,0-9c5.466-1.233,10.932-2.467,16.832-3.799c0-1.246,0-3.064,0-4.882c0-28.64-0.003-57.279,0.003-85.919
  c0.001-7.316,0.434-7.785,7.484-7.786c50.452-0.01,100.904-0.01,151.357,0c6.937,0.001,7.471,0.533,7.473,7.302
  c0.01,28.806,0.004,57.612,0.005,86.418c0,1.917,0,3.833,0,6.222c3.203,0,5.722-0.312,8.126,0.08
  c2.956,0.481,5.817,1.549,8.72,2.363c0,3,0,6,0,9c-3.759,7.936-8.664,13.577-18.725,13.522
  c-54.654-0.301-109.311-0.281-163.967-0.231c-6.381,0.006-10.777-2.796-14.127-7.811C2.011,115.119,1.055,113.223,0,111.392z
   M174.913,8.495c-50.217,0-99.927,0-149.665,0c0,30.576,0,60.79,0,91.15c50.067,0,99.784,0,149.665,0
  C174.913,69.107,174.913,38.994,174.913,8.495z M191.183,108.255c-1.888,0-3.655,0-5.422,0c-18.155,0-36.311-0.016-54.466,0.013
  c-4.06,0.006-8.25-0.791-11.566,2.908c-0.895,0.998-3.092,1.124-4.697,1.141c-9.493,0.1-18.99,0.156-28.48-0.036
  c-2.03-0.041-4.051-1.129-6.053-1.802c-2.077-0.698-4.121-2.11-6.188-2.126c-20.486-0.161-40.974-0.102-61.461-0.087
  c-1.286,0.001-2.573,0.156-4.238,0.265c1.385,4.884,3.661,7.92,8.97,7.919c54.8-0.012,109.599,0.043,164.399,0.051
  C187.608,116.501,189.764,114.59,191.183,108.255z"/>
  <path style="fill:#FFFFFF;" d="M174.913,8.495c0,30.499,0,60.612,0,91.15c-49.881,0-99.598,0-149.665,0c0-30.36,0-60.573,0-91.15
  C74.986,8.495,124.696,8.495,174.913,8.495z M114.942,32.705c-1.015-1.079-2.117-3.163-3.121-3.117
  c-1.818,0.084-4.51,0.956-5.221,2.334C98.216,48.154,90.128,64.539,81.974,80.89c-1.369,2.744-0.671,5.087,2.119,6.136
  c3.297,1.239,4.73-1.263,5.982-3.776c7.71-15.464,15.451-30.912,23.16-46.376C113.821,35.699,114.238,34.44,114.942,32.705z
   M133.905,57.722c-5.105,4.835-9.548,9.067-14.019,13.269c-2.186,2.054-3.412,4.407-1.042,6.905
  c2.472,2.606,4.797,1.149,6.867-0.929c5.057-5.076,10.086-10.18,15.207-15.191c2.84-2.779,2.88-5.305,0.003-8.104
  c-5.134-4.996-10.173-10.091-15.206-15.189c-2.102-2.129-4.48-3.441-6.889-0.962c-2.371,2.441-1.121,4.879,1.049,6.928
  C124.346,48.673,128.811,52.903,133.905,57.722z M62.513,57.556c5.136-4.819,9.613-8.996,14.061-13.203
  c2.116-2.001,3.564-4.323,0.999-6.835c-2.473-2.421-4.79-1.196-6.89,0.923c-5.026,5.074-10.046,10.155-15.168,15.131
  c-2.805,2.726-3.092,5.202-0.162,8.051c5.239,5.094,10.365,10.304,15.516,15.488c2.126,2.139,4.447,3.251,6.855,0.672
  c2.21-2.367,1.056-4.579-0.937-6.501C72.368,67.022,67.94,62.773,62.513,57.556z"/>
  <path d="M114.942,32.705c-0.705,1.735-1.122,2.994-1.708,4.17c-7.709,15.464-15.45,30.912-23.16,46.376
  c-1.253,2.513-2.686,5.015-5.982,3.776c-2.79-1.048-3.488-3.392-2.119-6.136c8.155-16.351,16.243-32.736,24.627-48.968
  c0.712-1.378,3.403-2.25,5.221-2.334C112.825,29.542,113.927,31.626,114.942,32.705z"/>
  <path d="M133.905,57.722c-5.094-4.819-9.559-9.049-14.031-13.272c-2.17-2.049-3.42-4.488-1.049-6.928
  c2.409-2.48,4.787-1.168,6.889,0.962c5.033,5.098,10.072,10.193,15.206,15.189c2.877,2.799,2.837,5.325-0.003,8.104
  c-5.12,5.011-10.15,10.115-15.207,15.191c-2.07,2.077-4.395,3.535-6.867,0.929c-2.369-2.498-1.144-4.851,1.042-6.905
  C124.358,66.789,128.8,62.557,133.905,57.722z"/>
  <path d="M62.513,57.556c5.426,5.216,9.855,9.466,14.274,13.725c1.994,1.921,3.147,4.134,0.937,6.501
  c-2.408,2.579-4.728,1.468-6.855-0.672c-5.152-5.183-10.277-10.394-15.516-15.488c-2.93-2.848-2.643-5.325,0.162-8.051
  c5.122-4.976,10.142-10.057,15.168-15.131c2.1-2.12,4.417-3.345,6.89-0.923c2.566,2.512,1.117,4.834-0.999,6.835
  C72.126,48.561,67.65,52.737,62.513,57.556z"/>
</g>
</svg>
