<svg xmlns="http://www.w3.org/2000/svg" viewBox="0 0 218.145 218.145">
    <g fill="#e7e7e7">
        <path d="M102.528 0h13.089c.545.146 1.084.385 1.637.424 15.058 1.049 29.332 4.997 42.558 12.229 30.935 16.917 49.882 42.723 56.559 77.405.793 4.118 1.193 8.312 1.774 12.47v13.089c-.141.631-.322 1.256-.417 1.894-.769 5.163-1.234 10.391-2.324 15.485-9.262 43.304-46.346 77.742-90.141 83.852-3.214.448-6.431.866-9.647 1.298h-13.089c-.547-.145-1.088-.384-1.643-.421-11.248-.744-22.164-3.11-32.5-7.557-36.503-15.705-58.814-43.049-66.608-82.082-.821-4.111-1.196-8.31-1.778-12.468v-13.089c.146-.704.374-1.401.426-2.112.758-10.278 2.786-20.313 6.688-29.836C23.068 31.637 51.791 8.44 93.325 1.253 96.374.726 99.46.413 102.528 0zM13.577 132.259c8.406 0 16.607.077 24.805-.041 2.957-.043 5.941-.372 8.855-.893 5.446-.975 9.359-5.587 9.85-11.265.499-5.774-2.053-9.955-7.447-12.204-.448-.187-.888-.394-1.432-.636.319-.21.488-.347.679-.443 4.488-2.262 6.395-6.045 5.973-10.892-.425-4.876-3.208-8.187-7.81-9.753-1.82-.62-3.827-.935-5.753-.958-8.498-.1-16.998-.046-25.498-.038-.706.001-1.412.072-2.222.117v47.006zm115.908-48.162l-.063.374c-.727 0-1.454-.019-2.181.003-10.428.312-18.172 5.783-21.067 14.888-1.437 4.52-1.421 9.166-1.045 13.813.777 9.615 7.218 17.148 16.631 19.061 3.448.701 7.071.904 10.597.79 10.037-.324 17.996-6.207 20.155-15.276.976-4.1 1.147-8.495 1.015-12.735-.291-9.305-6.03-16.753-14.663-19.278-3.027-.886-6.247-1.113-9.379-1.64zm64.825 31.197c.635 4.075.483 4.369-3.004 5.877-.598.259-1.209.497-1.831.693-7.508 2.366-13.463-.788-14.62-8.293-.563-3.649-.049-7.501.295-11.232.124-1.343.996-2.736 1.843-3.871 3.493-4.681 11.691-4.843 14.513-.148 1.097 1.825 2.077 2.065 3.916 1.665 3.729-.812 7.504-1.409 11.255-2.094-1.171-6.616-6.332-11.993-12.8-12.759-4.729-.56-9.583-.8-14.318-.41-8.479.7-14.815 5.04-18.005 13.071-2.953 7.436-2.837 15.046.222 22.487 2.505 6.093 6.978 10.212 13.394 11.729 11.136 2.634 21.623 1.02 31.077-5.709.622-.442 1.101-1.522 1.114-2.314.093-5.666.054-11.335.038-17.003-.001-.478-.144-.956-.221-1.434h-22.083v9.744l9.215.001zM64.659 85.15v46.968h36.936v-11.664H79.142v-2.861c0-10.103.022-20.207-.049-30.309-.005-.714-.676-2.028-1.072-2.042-4.41-.146-8.827-.092-13.362-.092z"/>
        <path d="M28.432 122.28v-9.697c3.585.207 7.05.228 10.46.667 2.24.288 3.399 2.06 3.362 4.159-.038 2.166-1.37 3.962-3.623 4.22-3.29.378-6.617.439-10.199.651zM28.409 103.781v-9.059c3.119.188 6.142.192 9.106.611 2.072.293 2.906 1.992 2.871 4.019-.038 2.173-1.199 3.708-3.293 3.935-2.782.3-5.593.331-8.684.494zM139.143 108.544c-.471 2.765-.679 5.386-1.397 7.858-1.003 3.454-3.919 5.41-7.743 5.571-3.762.159-7.054-1.001-8.633-4.608-2.426-5.543-2.427-11.319-.11-16.893 1.496-3.596 4.659-5.017 8.478-4.848 3.729.165 6.655 1.85 7.917 5.41.854 2.408 1.027 5.056 1.488 7.51z"/>
    </g>
</svg>
