<?xml version="1.0" encoding="iso-8859-1"?>
<!-- Generator: Adobe Illustrator 19.0.0, SVG Export Plug-In . SVG Version: 6.00 Build 0)  -->
<svg version="1.1" id="Layer_1" xmlns="http://www.w3.org/2000/svg" xmlns:xlink="http://www.w3.org/1999/xlink" x="0px" y="0px"
	 viewBox="0 0 218.145 218.145" style="enable-background:new 0 0 218.145 218.145;" xml:space="preserve">
<g id="Ywv1Cl.tif">
	<g id="XMLID_2_">
		<path id="XMLID_74_" style="fill:#E7E7E7;" d="M102.528,0c4.363,0,8.726,0,13.089,0c0.545,0.146,1.084,0.385,1.637,0.424
			c15.058,1.049,29.332,4.997,42.558,12.229c30.935,16.917,49.882,42.723,56.559,77.405c0.793,4.118,1.193,8.312,1.774,12.47
			c0,4.363,0,8.726,0,13.089c-0.141,0.631-0.322,1.256-0.417,1.894c-0.769,5.163-1.234,10.391-2.324,15.485
			c-9.262,43.304-46.346,77.742-90.141,83.852c-3.214,0.448-6.431,0.866-9.647,1.298c-4.363,0-8.726,0-13.089,0
			c-0.547-0.145-1.088-0.384-1.643-0.421c-11.248-0.744-22.164-3.11-32.5-7.557c-36.503-15.705-58.814-43.049-66.608-82.082
			c-0.821-4.111-1.196-8.31-1.778-12.468c0-4.363,0-8.726,0-13.089c0.146-0.704,0.374-1.401,0.426-2.112
			C1.182,90.139,3.21,80.104,7.112,70.581C23.068,31.637,51.791,8.44,93.325,1.253C96.374,0.726,99.46,0.413,102.528,0z
			 M13.577,132.259c8.406,0,16.607,0.077,24.805-0.041c2.957-0.043,5.941-0.372,8.855-0.893c5.446-0.975,9.359-5.587,9.85-11.265
			c0.499-5.774-2.053-9.955-7.447-12.204c-0.448-0.187-0.888-0.394-1.432-0.636c0.319-0.21,0.488-0.347,0.679-0.443
			c4.488-2.262,6.395-6.045,5.973-10.892c-0.425-4.876-3.208-8.187-7.81-9.753c-1.82-0.62-3.827-0.935-5.753-0.958
			c-8.498-0.1-16.998-0.046-25.498-0.038c-0.706,0.001-1.412,0.072-2.222,0.117C13.577,100.938,13.577,116.451,13.577,132.259z
			 M129.485,84.097c-0.021,0.125-0.042,0.249-0.063,0.374c-0.727,0-1.454-0.019-2.181,0.003
			c-10.428,0.312-18.172,5.783-21.067,14.888c-1.437,4.52-1.421,9.166-1.045,13.813c0.777,9.615,7.218,17.148,16.631,19.061
			c3.448,0.701,7.071,0.904,10.597,0.79c10.037-0.324,17.996-6.207,20.155-15.276c0.976-4.1,1.147-8.495,1.015-12.735
			c-0.291-9.305-6.03-16.753-14.663-19.278C135.837,84.851,132.617,84.624,129.485,84.097z M194.31,115.294
			c0.635,4.075,0.483,4.369-3.004,5.877c-0.598,0.259-1.209,0.497-1.831,0.693c-7.508,2.366-13.463-0.788-14.62-8.293
			c-0.563-3.649-0.049-7.501,0.295-11.232c0.124-1.343,0.996-2.736,1.843-3.871c3.493-4.681,11.691-4.843,14.513-0.148
			c1.097,1.825,2.077,2.065,3.916,1.665c3.729-0.812,7.504-1.409,11.255-2.094c-1.171-6.616-6.332-11.993-12.8-12.759
			c-4.729-0.56-9.583-0.8-14.318-0.41c-8.479,0.7-14.815,5.04-18.005,13.071c-2.953,7.436-2.837,15.046,0.222,22.487
			c2.505,6.093,6.978,10.212,13.394,11.729c11.136,2.634,21.623,1.02,31.077-5.709c0.622-0.442,1.101-1.522,1.114-2.314
			c0.093-5.666,0.054-11.335,0.038-17.003c-0.001-0.478-0.144-0.956-0.221-1.434c-7.437,0-14.738,0-22.083,0
			c0,3.286,0,6.429,0,9.744C188.288,115.294,191.316,115.294,194.31,115.294z M64.659,85.15c0,15.912,0,31.43,0,46.968
			c12.394,0,24.636,0,36.936,0c0-3.884,0-7.627,0-11.664c-7.484,0-14.85,0-22.453,0c0-1.146,0-2.003,0-2.861
			c0-10.103,0.022-20.207-0.049-30.309c-0.005-0.714-0.676-2.028-1.072-2.042C73.611,85.096,69.194,85.15,64.659,85.15z"/>
		<path id="XMLID_60_" style="fill:#E7E7E7;" d="M28.432,122.28c0-3.388,0-6.325,0-9.697c3.585,0.207,7.05,0.228,10.46,0.667
			c2.24,0.288,3.399,2.06,3.362,4.159c-0.038,2.166-1.37,3.962-3.623,4.22C35.341,122.007,32.014,122.068,28.432,122.28z"/>
		<path id="XMLID_59_" style="fill:#E7E7E7;" d="M28.409,103.781c0-3.161,0-5.89,0-9.059c3.119,0.188,6.142,0.192,9.106,0.611
			c2.072,0.293,2.906,1.992,2.871,4.019c-0.038,2.173-1.199,3.708-3.293,3.935C34.311,103.587,31.5,103.618,28.409,103.781z"/>
		<path id="XMLID_58_" style="fill:#E7E7E7;" d="M139.143,108.544c-0.471,2.765-0.679,5.386-1.397,7.858
			c-1.003,3.454-3.919,5.41-7.743,5.571c-3.762,0.159-7.054-1.001-8.633-4.608c-2.426-5.543-2.427-11.319-0.11-16.893
			c1.496-3.596,4.659-5.017,8.478-4.848c3.729,0.165,6.655,1.85,7.917,5.41C138.509,103.442,138.682,106.09,139.143,108.544z"/>
	</g>
</g>
</svg>
