<?xml version="1.0" encoding="iso-8859-1"?>
<!-- Generator: Adobe Illustrator 19.0.0, SVG Export Plug-In . SVG Version: 6.00 Build 0)  -->
<svg version="1.1" id="Layer_1" xmlns="http://www.w3.org/2000/svg" xmlns:xlink="http://www.w3.org/1999/xlink" x="0px" y="0px"
	 viewBox="0 0 285.17 218.145" style="enable-background:new 0 0 285.17 218.145;" xml:space="preserve">
<g id="W9qTiw.tif">
	<g id="XMLID_2_">
		<path id="XMLID_32_" style="fill:#E7E7E7;" d="M0,98.674c0-1.601,0-3.202,0-4.803c0.194-1.069,0.511-2.133,0.563-3.209
			c0.891-18.555,7.854-34.831,19.619-48.845C42.235,15.548,71.393,3.124,104.987,0.414c18.935-1.528,37.433,1.212,55.368,7.633
			c1.661,0.595,3.691,0.538,5.488,0.305c5.928-0.766,11.801-2.235,17.743-2.569c23.567-1.324,45.679,3.604,65.558,16.73
			c15.998,10.563,27.757,24.551,33.221,43.244c1.196,4.092,1.883,8.333,2.804,12.505c0,4.002,0,8.005,0,12.007
			c-0.196,0.965-0.333,1.946-0.598,2.891c-1.742,6.219-2.99,12.64-5.381,18.601c-4.789,11.937-12.851,21.58-22.953,29.461
			c-2.285,1.783-3.099,3.663-3.058,6.542c0.168,11.703,0.07,23.41,0.07,35.115c0,1.063,0,2.126,0,3.656
			c-1.364-0.679-2.328-1.113-3.249-1.625c-12.833-7.133-25.635-14.324-38.522-21.357c-1.548-0.845-3.56-1.182-5.351-1.163
			c-2.984,0.031-5.992,0.379-8.932,0.911c-1.678,0.303-3.483,0.918-4.819,1.934c-11.239,8.556-23.571,14.958-37.015,19.255
			c-18.25,5.832-36.92,7.796-55.899,5.297c-5.429-0.715-9.878,0.24-14.359,3.095c-4.205,2.679-8.702,4.896-13.056,7.343
			c-10.613,5.965-21.217,11.946-31.824,17.92c-0.2,0-0.4,0-0.6,0c0.011-15.587-0.057-31.176,0.107-46.761
			c0.03-2.817-0.891-4.452-3.076-6.157c-17.387-13.563-29.632-30.6-34.464-52.416C1.162,108.165,0.715,103.39,0,98.674z
			 M237.754,160.367c0-7.713,0.098-14.795-0.058-21.871c-0.048-2.184,0.765-3.309,2.46-4.567c4.245-3.149,8.546-6.324,12.287-10.031
			c10.142-10.049,16.409-22.138,17.087-36.587c0.957-20.373-8.224-36.049-23.765-48.258c-15.816-12.425-34.155-17.885-54.131-17.943
			c-23.159-0.067-43.862,6.678-61.077,22.678c-23.291,21.648-24.814,55.196-2.951,78.184c20.666,21.729,46.8,28.3,75.842,24.965
			c5.454-0.626,10.145-0.614,14.968,2.559C224.388,153.425,230.885,156.558,237.754,160.367z M139.486,18.303
			c-1.246-0.359-1.797-0.57-2.367-0.675c-16.016-2.929-32.028-2.906-47.928,0.626C64.682,23.7,43.799,35.192,28.801,55.877
			c-9.27,12.786-13.924,27.233-12.942,43.036c1.373,22.091,12.205,39.295,28.996,53.081c3.305,2.714,8.157,4.502,9.871,7.929
			c1.726,3.451,0.445,8.413,0.455,12.714c0.014,6.255,0.004,12.509,0.004,19.179c1.287-0.678,2.155-1.113,3.002-1.585
			c9.34-5.195,18.716-10.327,27.987-15.643c2.333-1.338,4.498-1.675,7.097-1.13c3.315,0.695,6.7,1.158,10.078,1.437
			c18.279,1.511,36.111-0.535,53.282-7.187c4.381-1.697,8.601-3.81,12.895-5.732c-19.468-4.672-36.584-12.791-50.609-26.712
			C105.58,122.029,97.567,106.18,96.77,87.188c-0.818-19.498,6.308-36.12,19.174-50.473
			C122.537,29.359,130.371,23.532,139.486,18.303z"/>
	</g>
</g>
</svg>
