<svg xmlns="http://www.w3.org/2000/svg" viewBox="0 0 285.17 218.145">
    <path d="M0 98.674v-4.803c.194-1.069.511-2.133.563-3.209.891-18.555 7.854-34.831 19.619-48.845C42.235 15.548 71.393 3.124 104.987.414c18.935-1.528 37.433 1.212 55.368 7.633 1.661.595 3.691.538 5.488.305 5.928-.766 11.801-2.235 17.743-2.569 23.567-1.324 45.679 3.604 65.558 16.73 15.998 10.563 27.757 24.551 33.221 43.244 1.196 4.092 1.883 8.333 2.804 12.505v12.007c-.196.965-.333 1.946-.598 2.891-1.742 6.219-2.99 12.64-5.381 18.601-4.789 11.937-12.851 21.58-22.953 29.461-2.285 1.783-3.099 3.663-3.058 6.542.168 11.703.07 23.41.07 35.115v3.656c-1.364-.679-2.328-1.113-3.249-1.625-12.833-7.133-25.635-14.324-38.522-21.357-1.548-.845-3.56-1.182-5.351-1.163-2.984.031-5.992.379-8.932.911-1.678.303-3.483.918-4.819 1.934-11.239 8.556-23.571 14.958-37.015 19.255-18.25 5.832-36.92 7.796-55.899 5.297-5.429-.715-9.878.24-14.359 3.095-4.205 2.679-8.702 4.896-13.056 7.343-10.613 5.965-21.217 11.946-31.824 17.92h-.6c.011-15.587-.057-31.176.107-46.761.03-2.817-.891-4.452-3.076-6.157-17.387-13.563-29.632-30.6-34.464-52.416C1.162 108.165.715 103.39 0 98.674zm237.754 61.693c0-7.713.098-14.795-.058-21.871-.048-2.184.765-3.309 2.46-4.567 4.245-3.149 8.546-6.324 12.287-10.031 10.142-10.049 16.409-22.138 17.087-36.587.957-20.373-8.224-36.049-23.765-48.258-15.816-12.425-34.155-17.885-54.131-17.943-23.159-.067-43.862 6.678-61.077 22.678-23.291 21.648-24.814 55.196-2.951 78.184 20.666 21.729 46.8 28.3 75.842 24.965 5.454-.626 10.145-.614 14.968 2.559 5.972 3.929 12.469 7.062 19.338 10.871zM139.486 18.303c-1.246-.359-1.797-.57-2.367-.675-16.016-2.929-32.028-2.906-47.928.626-24.509 5.446-45.392 16.938-60.39 37.623-9.27 12.786-13.924 27.233-12.942 43.036 1.373 22.091 12.205 39.295 28.996 53.081 3.305 2.714 8.157 4.502 9.871 7.929 1.726 3.451.445 8.413.455 12.714.014 6.255.004 12.509.004 19.179 1.287-.678 2.155-1.113 3.002-1.585 9.34-5.195 18.716-10.327 27.987-15.643 2.333-1.338 4.498-1.675 7.097-1.13 3.315.695 6.7 1.158 10.078 1.437 18.279 1.511 36.111-.535 53.282-7.187 4.381-1.697 8.601-3.81 12.895-5.732-19.468-4.672-36.584-12.791-50.609-26.712-13.337-13.235-21.35-29.084-22.147-48.076-.818-19.498 6.308-36.12 19.174-50.473 6.593-7.356 14.427-13.183 23.542-18.412z" fill="#e7e7e7"/>
</svg>
