<?xml version="1.0" encoding="iso-8859-1"?>
<!-- Generator: Adobe Illustrator 19.0.0, SVG Export Plug-In . SVG Version: 6.00 Build 0)  -->
<svg version="1.1" id="Layer_1" xmlns="http://www.w3.org/2000/svg" xmlns:xlink="http://www.w3.org/1999/xlink" x="0px" y="0px"
	 viewBox="0 0 224 218.134" style="enable-background:new 0 0 224 218.134;" xml:space="preserve">
<g id="KVNasi.tif">
	<g id="XMLID_1_">
		<path id="XMLID_15_" style="fill:#E7E7E7;" d="M224,117.127c-1.343,7.987-1.891,16.209-4.163,23.923
			c-10.861,36.869-34.201,62.482-70.37,76.036c-6.835,2.561-9.535,0.501-9.569-6.955c-0.04-8.499-0.063-16.998,0.005-25.496
			c0.066-8.306-0.865-16.298-6.99-23.071c5.31-1.164,10.179-1.967,14.895-3.311c21.569-6.144,33.463-20.941,35.155-43.234
			c1.036-13.65-0.259-26.6-9.702-37.569c-0.793-0.921-0.667-3.049-0.326-4.46c1.93-7.989,1.376-15.797-1.016-23.599
			c-0.821-2.68-2.465-4.276-4.997-3.362c-7.73,2.791-15.444,5.695-22.909,9.113c-3.022,1.384-5.464,2.111-8.867,1.345
			c-15.813-3.563-31.668-3.448-47.539,0.089c-2.122,0.473-4.775-0.303-6.898-1.185c-6.417-2.666-12.545-6.082-19.064-8.433
			c-7.493-2.702-9.456-1.774-10.524,5.873c-0.921,6.597-0.085,13.431-0.189,20.158c-0.027,1.765-0.078,4.032-1.105,5.204
			c-15.262,17.42-10.105,52.469,2.32,66.137c8.449,9.294,19.453,13.614,31.5,15.794c2.237,0.405,4.476,0.794,6.122,1.085
			c-1.748,4.389-3.334,8.692-5.206,12.866c-0.537,1.197-1.725,2.553-2.908,2.94c-10.975,3.59-20.67,3.05-28.932-8.597
			c-3.157-4.451-7.609-8.193-12.068-11.436c-3.001-2.183-7.051-2.916-11.694-0.022c1.75,1.893,3.271,3.46,4.704,5.103
			c3.665,4.2,9.009,7.869,10.618,12.759c5.319,16.159,19.289,19.156,34.884,17.837c1.446-0.122,2.878-0.399,4.833-0.678
			c0,7.226,0.186,14.035-0.065,20.828c-0.17,4.624-3.558,6.268-8.733,4.534c-15.553-5.212-29.283-13.482-40.912-25.052
			c-19.146-19.048-31.126-41.637-33.476-68.885c-0.067-0.777-0.535-1.519-0.816-2.277c0-6,0-12,0-18
			c0.739-4.715,1.253-9.478,2.252-14.137C14.482,31.978,67.754-7.089,126.009,1.079c45.94,6.442,76.556,32.487,91.942,75.959
			c3.484,9.844,4.109,20.699,6.049,31.089C224,111.127,224,114.127,224,117.127z"/>
	</g>
</g>
</svg>
