<svg xmlns="http://www.w3.org/2000/svg" viewBox="0 0 224 218.134">
    <path d="M224 117.127c-1.343 7.987-1.891 16.209-4.163 23.923-10.861 36.869-34.201 62.482-70.37 76.036-6.835 2.561-9.535.501-9.569-6.955-.04-8.499-.063-16.998.005-25.496.066-8.306-.865-16.298-6.99-23.071 5.31-1.164 10.179-1.967 14.895-3.311 21.569-6.144 33.463-20.941 35.155-43.234 1.036-13.65-.259-26.6-9.702-37.569-.793-.921-.667-3.049-.326-4.46 1.93-7.989 1.376-15.797-1.016-23.599-.821-2.68-2.465-4.276-4.997-3.362-7.73 2.791-15.444 5.695-22.909 9.113-3.022 1.384-5.464 2.111-8.867 1.345-15.813-3.563-31.668-3.448-47.539.089-2.122.473-4.775-.303-6.898-1.185-6.417-2.666-12.545-6.082-19.064-8.433-7.493-2.702-9.456-1.774-10.524 5.873-.921 6.597-.085 13.431-.189 20.158-.027 1.765-.078 4.032-1.105 5.204-15.262 17.42-10.105 52.469 2.32 66.137 8.449 9.294 19.453 13.614 31.5 15.794 2.237.405 4.476.794 6.122 1.085-1.748 4.389-3.334 8.692-5.206 12.866-.537 1.197-1.725 2.553-2.908 2.94-10.975 3.59-20.67 3.05-28.932-8.597-3.157-4.451-7.609-8.193-12.068-11.436-3.001-2.183-7.051-2.916-11.694-.022 1.75 1.893 3.271 3.46 4.704 5.103 3.665 4.2 9.009 7.869 10.618 12.759 5.319 16.159 19.289 19.156 34.884 17.837 1.446-.122 2.878-.399 4.833-.678 0 7.226.186 14.035-.065 20.828-.17 4.624-3.558 6.268-8.733 4.534-15.553-5.212-29.283-13.482-40.912-25.052C15.144 173.243 3.164 150.654.814 123.406c-.067-.777-.535-1.519-.816-2.277v-18c.739-4.715 1.253-9.478 2.252-14.137C14.482 31.978 67.754-7.089 126.009 1.079c45.94 6.442 76.556 32.487 91.942 75.959 3.484 9.844 4.109 20.699 6.049 31.089v9z" fill="#e7e7e7"/>
</svg>
