<!--?xml version="1.0" encoding="iso-8859-1"?-->
<!-- Generator: Adobe Illustrator 19.0.0, SVG Export Plug-In . SVG Version: 6.00 Build 0)  -->
<svg version="1.1" id="Layer_1" xmlns="http://www.w3.org/2000/svg" xmlns:xlink="http://www.w3.org/1999/xlink" x="0px" y="0px" viewBox="0 0 406.161 45.747" xml:space="preserve">
<g id="XMLID_16_">
  <path id="XMLID_17_" d="M22.212,34.112c-2.61,1.411-5.254,2.115-7.933,2.115c-3.773,0-6.743-1.313-8.911-3.94
    C3.2,29.661,2.115,26.038,2.115,21.419c0-4.583,1.111-8.197,3.332-10.842c2.221-2.644,5.183-3.966,8.885-3.966
    c2.573,0,5.2,0.564,7.88,1.692v6.241h-2.909v-4.178c-1.411-0.563-3.103-0.846-5.077-0.846c-2.821,0-4.99,0.961-6.505,2.882
    c-1.516,1.922-2.274,4.857-2.274,8.806c0,4.125,0.793,7.175,2.38,9.149c1.586,1.975,3.79,2.961,6.611,2.961
    c2.362,0,4.953-0.705,7.774-2.115V34.112z" class="UfSkJsPR_0"></path>
  <path id="XMLID_19_" d="M26.284,21.366c0-4.583,1.013-8.188,3.041-10.815c2.027-2.626,4.768-3.94,8.224-3.94
    c3.385,0,6.02,1.269,7.906,3.808c1.886,2.539,2.83,6.064,2.83,10.577c0,4.795-1.014,8.533-3.041,11.212
    c-2.028,2.68-4.733,4.02-8.118,4.02c-3.279,0-5.906-1.313-7.88-3.94C27.271,29.661,26.284,26.02,26.284,21.366z M29.616,21.208
    c0,3.949,0.679,6.955,2.036,9.017c1.357,2.062,3.234,3.094,5.632,3.094c2.397,0,4.275-1.031,5.633-3.094
    c1.356-2.062,2.036-5.085,2.036-9.07c0-3.842-0.644-6.743-1.93-8.7c-1.288-1.957-3.165-2.935-5.632-2.935
    c-2.504,0-4.425,0.952-5.765,2.856C30.285,14.279,29.616,17.224,29.616,21.208z" class="UfSkJsPR_1"></path>
  <path id="XMLID_22_" d="M61.876,9.784h-3.173v23.27h8.832v-3.702h2.803v6.346H52.356v-2.645h3.173V9.784h-3.173V7.14h9.52V9.784z" class="UfSkJsPR_2"></path>
  <path id="XMLID_24_" d="M82.501,9.784h-3.173v23.27h8.832v-3.702h2.803v6.346H72.982v-2.645h3.173V9.784h-3.173V7.14h9.52V9.784z" class="UfSkJsPR_3"></path>
  <path id="XMLID_26_" d="M109.844,33.054v-3.702h2.803v6.346H93.607v-2.645h3.173V9.784h-3.173V7.14h18.51v6.346h-2.803V9.784
    h-9.361v10.048h5.289v-2.645h2.644v8.462h-2.644v-3.173h-5.289v10.577H109.844z" class="UfSkJsPR_4"></path>
  <path id="XMLID_28_" d="M132.055,33.054v-3.702h2.804v6.346h-19.039v-2.645h3.173V9.784h-3.173V7.14h18.51v6.346h-2.803V9.784
    h-9.361v10.048h5.289v-2.645h2.645v8.462h-2.645v-3.173h-5.289v10.577H132.055z" class="UfSkJsPR_5"></path>
  <path id="XMLID_30_" d="M157.281,9.784h-3.173V7.14h9.308v2.645h-3.173v25.914h-3.067l-12.904-22.265h-0.105v19.621h3.173v2.645
    h-9.308v-2.645h3.173V9.784h-3.173V7.14h6.346l12.799,22h0.105V9.784z" class="UfSkJsPR_6"></path>
  <path id="XMLID_32_" d="M233.172,11.741l-9.255,24.222h-2.434l-9.202-23.746h-0.105l-0.528,20.837h2.538v2.645h-8.462v-2.645h3.015
    l0.688-23.27h-3.12V7.14h7.404l9.149,23.64h0.105l8.99-23.64h7.457v2.645h-3.015l0.582,23.27h3.12v2.645h-8.99v-2.645h2.697
    l-0.529-21.313H233.172z" class="UfSkJsPR_7"></path>
  <path id="XMLID_34_" d="M258.081,34.905c-1.692,0.881-3.544,1.322-5.554,1.322c-2.855,0-5.112-0.917-6.769-2.75
    c-1.658-1.833-2.486-4.46-2.486-7.88c0-3.455,0.873-6.162,2.618-8.118c1.745-1.957,4.01-2.935,6.796-2.935
    c1.938,0,3.736,0.405,5.395,1.216v5.13h-2.803v-3.226c-0.776-0.317-1.729-0.476-2.856-0.476c-1.975,0-3.438,0.626-4.39,1.877
    c-0.952,1.252-1.428,3.235-1.428,5.95c0,2.892,0.511,5.024,1.534,6.399c1.021,1.375,2.503,2.062,4.442,2.062
    c1.903,0,3.736-0.476,5.5-1.428V34.905z" class="UfSkJsPR_8"></path>
  <path id="XMLID_36_" d="M276.591,22.477h8.991v2.645h-2.116v9.255c-2.644,1.235-5.394,1.851-8.25,1.851
    c-4.09,0-7.264-1.313-9.52-3.94c-2.257-2.626-3.385-6.249-3.385-10.868c0-4.583,1.164-8.197,3.49-10.842
    c2.327-2.644,5.448-3.966,9.361-3.966c2.715,0,5.482,0.564,8.303,1.692v6.77h-2.908v-4.707c-1.552-0.563-3.385-0.846-5.5-0.846
    c-3.033,0-5.36,0.961-6.981,2.882c-1.622,1.922-2.433,4.857-2.433,8.806c0,4.125,0.847,7.175,2.538,9.149
    c1.692,1.975,4.072,2.961,7.141,2.961c1.621,0,3.296-0.246,5.023-0.74v-7.457h-3.755V22.477z" class="UfSkJsPR_9"></path>
  <path id="XMLID_40_" d="M294.572,26.549c0,2.221,0.616,3.905,1.851,5.051c1.234,1.146,2.891,1.719,4.972,1.719
    c2.256,0,4.01-0.599,5.262-1.798c1.251-1.198,1.878-2.909,1.878-5.13V9.784h-3.227V7.14h9.361v2.645h-3.173v16.447
    c0,2.962-0.908,5.368-2.724,7.219c-1.816,1.851-4.293,2.776-7.431,2.776c-3.033,0-5.447-0.873-7.246-2.618
    c-1.798-1.746-2.697-4.081-2.697-7.008V9.784h-3.173V7.14h9.52v2.645h-3.173V26.549z" class="UfSkJsPR_10"></path>
  <path id="XMLID_42_" d="M337.938,34.112c-2.609,1.411-5.254,2.115-7.933,2.115c-3.773,0-6.743-1.313-8.911-3.94
    c-2.169-2.626-3.253-6.249-3.253-10.868c0-4.583,1.11-8.197,3.332-10.842c2.222-2.644,5.183-3.966,8.885-3.966
    c2.573,0,5.2,0.564,7.88,1.692v6.241h-2.908v-4.178c-1.411-0.563-3.104-0.846-5.077-0.846c-2.821,0-4.989,0.961-6.505,2.882
    c-1.517,1.922-2.274,4.857-2.274,8.806c0,4.125,0.793,7.175,2.38,9.149c1.587,1.975,3.79,2.961,6.61,2.961
    c2.362,0,4.953-0.705,7.774-2.115V34.112z" class="UfSkJsPR_11"></path>
  <path id="XMLID_44_" d="M341.111,33.054h3.173V9.784h-3.173V7.14h9.52v2.645h-3.174v23.27h3.174v2.645h-9.52V33.054z
     M355.391,9.784V7.14h8.462v2.645h-2.645l-9.731,10.789l10.207,12.481h3.227v2.645h-9.52v-2.645h2.168v-0.105l-9.837-12.111
    l9.89-10.948V9.784H355.391z" class="UfSkJsPR_12"></path>
  <path id="XMLID_47_" d="M366.497,33.054h3.173V9.784h-3.173V7.14h9.52v2.645h-3.174v23.27h3.174v2.645h-9.52V33.054z" class="UfSkJsPR_13"></path>
  <path id="XMLID_49_" d="M398.439,9.784h-3.173V7.14h9.308v2.645h-3.173v25.914h-3.067L385.43,13.433h-0.105v19.621h3.173v2.645
    h-9.308v-2.645h3.173V9.784h-3.173V7.14h6.346l12.799,22h0.105V9.784z" class="UfSkJsPR_14"></path>
</g>
<g id="XMLID_5_">
  <path id="XMLID_39_" style="fill:none;stroke:#BE1E2D;stroke-linejoin:round;stroke-miterlimit:10;" d="M197.063,16.006L
    189.22,8.089L182.634,5.573L179.378,8.089L181.894,16.006L190.522,23.86L198.028,25.576L199.505,21.556Z" class="UfSkJsPR_15"></path>
  <path id="XMLID_38_" style="fill:none;stroke:#BE1E2D;stroke-linejoin:round;stroke-miterlimit:10;" d="M200.126,28.895L
    198.049,25.61L199.505,21.556L200.126,28.895L198.969,33.497L193.88,35.698L171.529,34.072L173.659,21.042L181.894,16.006L
    178.889,27.67L185.834,33.058L193.88,35.698L198.028,25.576L198.969,33.497L193.88,35.698L190.522,23.86L185.834,33.058L
    171.721,34.072L178.889,27.67L173.659,21.042L170.579,14.963L179.378,8.089L174.487,5.573L170.312,9.584L171.529,34.072L
    178.889,27.67L190.522,23.86L181.894,16.006L170.579,14.963L170.337,9.56L179.378,8.089L182.634,5.573L174.487,5.573" class="UfSkJsPR_16"></path>
</g>
<style>.UfSkJsPR_0{stroke-dasharray:124 126;stroke-dashoffset:125;animation:UfSkJsPR_draw 2000ms linear 0ms forwards;}.UfSkJsPR_1{stroke-dasharray:147 149;stroke-dashoffset:148;animation:UfSkJsPR_draw 2000ms linear 62ms forwards;}.UfSkJsPR_2{stroke-dasharray:114 116;stroke-dashoffset:115;animation:UfSkJsPR_draw 2000ms linear 125ms forwards;}.UfSkJsPR_3{stroke-dasharray:114 116;stroke-dashoffset:115;animation:UfSkJsPR_draw 2000ms linear 187ms forwards;}.UfSkJsPR_4{stroke-dasharray:169 171;stroke-dashoffset:170;animation:UfSkJsPR_draw 2000ms linear 250ms forwards;}.UfSkJsPR_5{stroke-dasharray:169 171;stroke-dashoffset:170;animation:UfSkJsPR_draw 2000ms linear 312ms forwards;}.UfSkJsPR_6{stroke-dasharray:197 199;stroke-dashoffset:198;animation:UfSkJsPR_draw 2000ms linear 375ms forwards;}.UfSkJsPR_7{stroke-dasharray:260 262;stroke-dashoffset:261;animation:UfSkJsPR_draw 2000ms linear 437ms forwards;}.UfSkJsPR_8{stroke-dasharray:90 92;stroke-dashoffset:91;animation:UfSkJsPR_draw 2000ms linear 500ms forwards;}.UfSkJsPR_9{stroke-dasharray:159 161;stroke-dashoffset:160;animation:UfSkJsPR_draw 2000ms linear 562ms forwards;}.UfSkJsPR_10{stroke-dasharray:163 165;stroke-dashoffset:164;animation:UfSkJsPR_draw 2000ms linear 625ms forwards;}.UfSkJsPR_11{stroke-dasharray:124 126;stroke-dashoffset:125;animation:UfSkJsPR_draw 2000ms linear 687ms forwards;}.UfSkJsPR_12{stroke-dasharray:189 191;stroke-dashoffset:190;animation:UfSkJsPR_draw 2000ms linear 750ms forwards;}.UfSkJsPR_13{stroke-dasharray:89 91;stroke-dashoffset:90;animation:UfSkJsPR_draw 2000ms linear 812ms forwards;}.UfSkJsPR_14{stroke-dasharray:197 199;stroke-dashoffset:198;animation:UfSkJsPR_draw 2000ms linear 875ms forwards;}.UfSkJsPR_15{stroke-dasharray:61 63;stroke-dashoffset:62;animation:UfSkJsPR_draw 2000ms linear 937ms forwards;}.UfSkJsPR_16{stroke-dasharray:306 308;stroke-dashoffset:307;animation:UfSkJsPR_draw 2000ms linear 1000ms forwards;}@keyframes UfSkJsPR_draw{100%{stroke-dashoffset:0;}}@keyframes UfSkJsPR_fade{0%{stroke-opacity:1;}94.44444444444444%{stroke-opacity:1;}100%{stroke-opacity:0;}}</style></svg>
