<svg xmlns="http://www.w3.org/2000/svg" viewBox="0 0 218.146 218.145">
    <path d="M0 194.702V23.433c.156-.446.354-.883.462-1.34C3.186 10.627 10.24 3.434 21.677.548 22.27.398 22.848.184 23.432 0h170.844c.312.125.615.314.939.367 13.161 2.133 22.897 13.396 22.905 26.744.032 54.667.042 109.333-.005 164-.013 14.846-12.167 26.991-27.017 27.003-54.667.046-109.333.035-164 .006-12.194-.007-22.907-8.286-26.138-20.004-.315-1.139-.64-2.276-.96-3.414zM119.273 76.35H82.9v109.548h36.393v-2.702c0-19.88.041-39.76-.02-59.639-.021-6.926 2.556-12.584 7.831-16.965 10.474-8.701 25.668-4.069 29.132 9.027 1.02 3.855 1.372 7.98 1.403 11.986.142 18.601.063 37.203.064 55.805v2.494h36.575v-2.689c0-19.383.054-38.766-.039-58.148-.022-4.671-.254-9.377-.871-14.002-1.2-9-4.158-17.387-10.198-24.376-8.648-10.007-19.973-13.434-32.796-13.08-12.503.346-22.371 5.566-29.56 15.822-.376.536-.809 1.033-1.539 1.958-.002-5.355-.002-10.15-.002-15.039zm-93.136-.058v109.621h36.328V76.292H26.137zm18.071-15.09c1.893-.235 3.813-.344 5.676-.728 8.808-1.812 14.72-8.812 15.001-17.648.285-8.954-5.008-16.577-13.62-18.697-3.487-.858-7.331-1.004-10.914-.6C28.68 24.848 21.434 35.98 24.552 47.294c2.365 8.579 9.764 13.764 19.656 13.908z" fill="#e7e7e7"/>
</svg>
