<?xml version="1.0" encoding="iso-8859-1"?>
<!-- Generator: Adobe Illustrator 19.0.0, SVG Export Plug-In . SVG Version: 6.00 Build 0)  -->
<svg version="1.1" id="Layer_1" xmlns="http://www.w3.org/2000/svg" xmlns:xlink="http://www.w3.org/1999/xlink" x="0px" y="0px"
	 viewBox="0 0 218.146 218.145" style="enable-background:new 0 0 218.146 218.145;" xml:space="preserve">
<g id="rIYZPl.tif">
	<g id="XMLID_1_">
		<path id="XMLID_33_" style="fill:#E7E7E7;" d="M0,194.702c0-57.09,0-114.18,0-171.269c0.156-0.446,0.354-0.883,0.462-1.34
			C3.186,10.627,10.24,3.434,21.677,0.548C22.27,0.398,22.848,0.184,23.432,0C80.38,0,137.328,0,194.276,0
			c0.312,0.125,0.615,0.314,0.939,0.367c13.161,2.133,22.897,13.396,22.905,26.744c0.032,54.667,0.042,109.333-0.005,164
			c-0.013,14.846-12.167,26.991-27.017,27.003c-54.667,0.046-109.333,0.035-164,0.006c-12.194-0.007-22.907-8.286-26.138-20.004
			C0.645,196.977,0.32,195.84,0,194.702z M119.273,76.35c-12.328,0-24.352,0-36.373,0c0,36.63,0,73.073,0,109.548
			c12.207,0,24.236,0,36.393,0c0-1.006,0-1.854,0-2.702c0-19.88,0.041-39.76-0.02-59.639c-0.021-6.926,2.556-12.584,7.831-16.965
			c10.474-8.701,25.668-4.069,29.132,9.027c1.02,3.855,1.372,7.98,1.403,11.986c0.142,18.601,0.063,37.203,0.064,55.805
			c0,0.816,0,1.632,0,2.494c12.373,0,24.403,0,36.575,0c0-0.999,0-1.844,0-2.689c0-19.383,0.054-38.766-0.039-58.148
			c-0.022-4.671-0.254-9.377-0.871-14.002c-1.2-9-4.158-17.387-10.198-24.376c-8.648-10.007-19.973-13.434-32.796-13.08
			c-12.503,0.346-22.371,5.566-29.56,15.822c-0.376,0.536-0.809,1.033-1.539,1.958C119.273,86.034,119.273,81.239,119.273,76.35z
			 M26.137,76.292c0,36.673,0,73.121,0,109.621c12.175,0,24.205,0,36.328,0c0-36.595,0-73.043,0-109.621
			C50.315,76.292,38.285,76.292,26.137,76.292z M44.208,61.202c1.893-0.235,3.813-0.344,5.676-0.728
			c8.808-1.812,14.72-8.812,15.001-17.648c0.285-8.954-5.008-16.577-13.62-18.697c-3.487-0.858-7.331-1.004-10.914-0.6
			C28.68,24.848,21.434,35.98,24.552,47.294C26.917,55.873,34.316,61.058,44.208,61.202z"/>
	</g>
</g>
</svg>
