<svg xmlns="http://www.w3.org/2000/svg" viewBox="0 0 163.453 218.145">
    <g fill="#e7e7e7">
        <path d="M122.486 0c0 10.992-.026 21.179.009 31.366.025 7.164 2.483 9.609 9.648 9.628 10.186.028 20.373.007 31.308.007v5.425c.001 54.112.006 108.225-.002 162.337-.001 7.941-1.407 9.364-9.331 9.366-48.286.016-96.572.02-144.857.008-7.872-.002-9.267-1.426-9.259-9.414.035-33.053.136-66.105.136-99.158C.138 76.206.039 42.846 0 9.485-.01 1.205 1.213.012 9.659.01 45.468-.001 81.277.002 117.087 0h5.399zM40.65 71.399h.049c0 3.72-.115 7.444.026 11.158.23 6.063 5.246 11.97 10.661 12.771 11.506 1.701 20.068-1.211 22.322-7.952.491-1.469-.561-3.453-.902-5.2-1.762.595-4.145.664-5.173 1.88-3.576 4.23-11.82 6.369-16.376 3.286-1.62-1.097-3.204-3.481-3.31-5.362-.393-6.933-.469-13.923.025-20.842.151-2.11 2.067-4.909 3.96-5.92 4.698-2.508 12.387.022 15.909 4.003.961 1.086 3.153 1.084 4.78 1.581.428-1.701 1.67-3.733 1.137-5.043-1.87-4.597-5.435-7.601-10.565-8.092-2.887-.276-5.818-.227-8.724-.151-8.143.213-13.597 5.632-13.804 13.699-.088 3.394-.015 6.79-.015 10.184zm95.675 85.634H40.992v6.456h95.333v-6.456zm-95.432 20.365v6.648h95.282v-6.648H40.893zm57.915-94.76c-4.68-11.245-8.821-21.574-13.374-31.717-.672-1.497-3.3-2.116-5.023-3.142-.513 1.928-1.979 4.235-1.388 5.726 5.171 13.049 10.646 25.98 16.233 38.858.58 1.337 2.398 2.764 3.779 2.919 1.017.114 2.675-1.566 3.32-2.821 1.616-3.147 2.822-6.505 4.186-9.782 4.091-9.828 8.282-19.618 12.149-29.534.537-1.377-.128-3.658-1.036-4.965-.405-.583-3.16-.273-4.181.507-1.151.88-1.641 2.706-2.262 4.186-4.048 9.649-8.055 19.315-12.403 29.765zm-3.537 53.979H41.03v6.389h54.241v-6.389zm-54.285-14.003h54.056v-6.661H40.986v6.661zm-7.181 41.061v-6.711h-6.469v6.711h6.469zm-6.59 20.305h6.559v-6.548h-6.559v6.548zm-.032-41.09h6.546v-6.355h-6.546v6.355zm.315-26.785v6.417h6.352v-6.774l-6.352.357z"/>
        <path d="M129.794 1.212l32.021 32.081h-32.021V1.212z"/>
    </g>
</svg>
