<?xml version="1.0" encoding="iso-8859-1"?>
<!-- Generator: Adobe Illustrator 19.0.0, SVG Export Plug-In . SVG Version: 6.00 Build 0)  -->
<svg version="1.1" id="Layer_1" xmlns="http://www.w3.org/2000/svg" xmlns:xlink="http://www.w3.org/1999/xlink" x="0px" y="0px"
	 viewBox="0 0 163.453 218.145" style="enable-background:new 0 0 163.453 218.145;" xml:space="preserve">
<g id="XMLID_1_">
	<path id="XMLID_137_" style="fill:#E7E7E7;" d="M122.486,0c0,10.992-0.026,21.179,0.009,31.366
		c0.025,7.164,2.483,9.609,9.648,9.628c10.186,0.028,20.373,0.007,31.308,0.007c0,2.015,0,3.72,0,5.425
		c0.001,54.112,0.006,108.225-0.002,162.337c-0.001,7.941-1.407,9.364-9.331,9.366c-48.286,0.016-96.572,0.02-144.857,0.008
		c-7.872-0.002-9.267-1.426-9.259-9.414c0.035-33.053,0.136-66.105,0.136-99.158C0.138,76.206,0.039,42.846,0,9.485
		c-0.01-8.28,1.213-9.473,9.659-9.475C45.468-0.001,81.277,0.002,117.087,0C118.677,0,120.268,0,122.486,0z M40.65,71.399
		c0.016,0,0.033,0,0.049,0c0,3.72-0.115,7.444,0.026,11.158c0.23,6.063,5.246,11.97,10.661,12.771
		c11.506,1.701,20.068-1.211,22.322-7.952c0.491-1.469-0.561-3.453-0.902-5.2c-1.762,0.595-4.145,0.664-5.173,1.88
		c-3.576,4.23-11.82,6.369-16.376,3.286c-1.62-1.097-3.204-3.481-3.31-5.362c-0.393-6.933-0.469-13.923,0.025-20.842
		c0.151-2.11,2.067-4.909,3.96-5.92c4.698-2.508,12.387,0.022,15.909,4.003c0.961,1.086,3.153,1.084,4.78,1.581
		c0.428-1.701,1.67-3.733,1.137-5.043c-1.87-4.597-5.435-7.601-10.565-8.092c-2.887-0.276-5.818-0.227-8.724-0.151
		c-8.143,0.213-13.597,5.632-13.804,13.699C40.577,64.609,40.65,68.005,40.65,71.399z M136.325,157.033c-32.131,0-63.78,0-95.333,0
		c0,2.456,0,4.471,0,6.456c32.023,0,63.685,0,95.333,0C136.325,161.238,136.325,159.324,136.325,157.033z M40.893,177.398
		c0,2.438,0,4.482,0,6.648c31.896,0,63.529,0,95.282,0c0-2.357,0-4.37,0-6.648C104.381,177.398,72.872,177.398,40.893,177.398z
		 M98.808,82.638c-4.68-11.245-8.821-21.574-13.374-31.717c-0.672-1.497-3.3-2.116-5.023-3.142
		c-0.513,1.928-1.979,4.235-1.388,5.726c5.171,13.049,10.646,25.98,16.233,38.858c0.58,1.337,2.398,2.764,3.779,2.919
		c1.017,0.114,2.675-1.566,3.32-2.821c1.616-3.147,2.822-6.505,4.186-9.782c4.091-9.828,8.282-19.618,12.149-29.534
		c0.537-1.377-0.128-3.658-1.036-4.965c-0.405-0.583-3.16-0.273-4.181,0.507c-1.151,0.88-1.641,2.706-2.262,4.186
		C107.163,62.522,103.156,72.188,98.808,82.638z M95.271,136.617c-18.165,0-36.282,0-54.241,0c0,2.393,0,4.396,0,6.389
		c18.263,0,36.141,0,54.241,0C95.271,140.808,95.271,138.914,95.271,136.617z M40.986,122.614c18.433,0,36.263,0,54.056,0
		c0-2.508,0-4.627,0-6.661c-18.291,0-36.135,0-54.056,0C40.986,118.175,40.986,120.064,40.986,122.614z M33.805,163.675
		c0-2.556,0-4.569,0-6.711c-2.329,0-4.347,0-6.469,0c0,2.458,0,4.607,0,6.711C29.621,163.675,31.535,163.675,33.805,163.675z
		 M27.215,183.98c2.548,0,4.535,0,6.559,0c0-2.387,0-4.38,0-6.548c-2.326,0-4.309,0-6.559,0
		C27.215,179.733,27.215,181.733,27.215,183.98z M27.183,142.89c2.216,0,4.432,0,6.546,0c0-2.381,0-4.356,0-6.355
		c-2.373,0-4.358,0-6.546,0C27.183,138.717,27.183,140.597,27.183,142.89z M27.498,116.105c0,2.319,0,4.173,0,6.417
		c2.245,0,4.218,0,6.352,0c0-2.308,0-4.305,0-6.774C31.55,115.877,29.573,115.988,27.498,116.105z"/>
	<path id="XMLID_136_" style="fill:#E7E7E7;" d="M129.794,1.212c10.805,10.825,21.397,21.437,32.021,32.081
		c-10.321,0-21.075,0-32.021,0C129.794,22.459,129.794,11.954,129.794,1.212z"/>
</g>
</svg>
