<?xml version="1.0" encoding="iso-8859-1"?>
<!-- Generator: Adobe Illustrator 19.0.0, SVG Export Plug-In . SVG Version: 6.00 Build 0)  -->
<svg version="1.1" id="Layer_1" xmlns="http://www.w3.org/2000/svg" xmlns:xlink="http://www.w3.org/1999/xlink" x="0px" y="0px"
   viewBox="0 0 30.814 31.125" style="enable-background:new 0 0 30.814 31.125;" xml:space="preserve">
<g id="XMLID_5_">
  <polygon id="XMLID_39_" style="fill:none;stroke:#FFFFFF;stroke-linejoin:round;stroke-miterlimit:10;" points="27.251,10.933
  19.408,3.016 12.822,0.5 9.567,3.016 12.082,10.933 20.71,18.788 28.216,20.503 29.693,16.483 	"/>
  <polyline id="XMLID_38_" style="fill:none;stroke:#FFFFFF;stroke-linejoin:round;stroke-miterlimit:10;" points="30.314,23.822
  28.237,20.537 29.693,16.483 30.314,23.822 29.157,28.424 24.069,30.625 1.717,28.999 3.848,15.969 12.082,10.933 9.077,22.597
  16.023,27.985 24.069,30.625 28.216,20.503 29.157,28.424 24.069,30.625 20.71,18.788 16.023,27.985 1.909,28.999 9.077,22.597
  3.848,15.969 0.767,9.89 9.567,3.016 4.675,0.5 0.5,4.511 1.717,28.999 9.077,22.597 20.71,18.788 12.082,10.933 0.767,9.89
  0.525,4.487 9.567,3.016 12.822,0.5 4.675,0.5 	"/>
</g>
</svg>
