<svg xmlns="http://www.w3.org/2000/svg" viewBox="0 0 30.314 30.625">
    <g fill="none" stroke="#e6e7e8" stroke-width=".5" stroke-linejoin="round" stroke-miterlimit="10">
        <path d="M27.001 10.683l-7.843-7.917L12.572.25 9.317 2.766l2.515 7.917 8.628 7.855 7.506 1.715 1.477-4.02z"/>
        <path d="M30.064 23.572l-2.077-3.285 1.456-4.054.621 7.339-1.157 4.602-5.088 2.201-22.352-1.626 2.131-13.03 8.234-5.036-3.005 11.664 6.946 5.388 8.046 2.64 4.147-10.122.941 7.921-5.088 2.201-3.359-11.837-4.687 9.197-14.114 1.014 7.168-6.402-5.229-6.628L.517 9.64l8.8-6.874L4.425.25.25 4.261l1.217 24.488 7.36-6.402 11.633-3.809-8.628-7.855L.517 9.64.275 4.237l9.042-1.471L12.572.25H4.425"/>
    </g>
</svg>
