<?xml version="1.0" encoding="iso-8859-1"?>
<!-- Generator: Adobe Illustrator 19.0.0, SVG Export Plug-In . SVG Version: 6.00 Build 0)  -->
<svg version="1.1" id="Layer_1" xmlns="http://www.w3.org/2000/svg" xmlns:xlink="http://www.w3.org/1999/xlink" x="0px" y="0px"
	 viewBox="0 0 30.314 30.625" style="enable-background:new 0 0 30.314 30.625;" xml:space="preserve">
<g id="XMLID_3_">
	<polygon id="XMLID_98_" style="fill:none;stroke:#E6E7E8;stroke-width:0.5;stroke-linejoin:round;stroke-miterlimit:10;" points="
		27.001,10.683 19.158,2.766 12.572,0.25 9.317,2.766 11.832,10.683 20.46,18.538 27.966,20.253 29.443,16.233 	"/>
	
		<polyline id="XMLID_117_" style="fill:none;stroke:#E6E7E8;stroke-width:0.5;stroke-linejoin:round;stroke-miterlimit:10;" points="
		30.064,23.572 27.987,20.287 29.443,16.233 30.064,23.572 28.907,28.174 23.819,30.375 1.467,28.749 3.598,15.719 11.832,10.683 
		8.827,22.347 15.773,27.735 23.819,30.375 27.966,20.253 28.907,28.174 23.819,30.375 20.46,18.538 15.773,27.735 1.659,28.749 
		8.827,22.347 3.598,15.719 0.517,9.64 9.317,2.766 4.425,0.25 0.25,4.261 1.467,28.749 8.827,22.347 20.46,18.538 11.832,10.683 
		0.517,9.64 0.275,4.237 9.317,2.766 12.572,0.25 4.425,0.25 	"/>
</g>
</svg>
